<svg width="156" height="30" viewBox="0 0 156 30" fill="none" xmlns="http://www.w3.org/2000/svg">
<g clip-path="url(#clip0_333_493)">
<path d="M0 15.1143L15.0654 30H0V0H15.0898L0 15.1143ZM45.375 29.9756L30.3096 15.1143L37.875 7.5L27.915 7.44238L20.25 15.1143L35.3398 30H25.125L10.0596 15.1143L25.1494 0H45.375V29.9756ZM45.3994 30H45.375V29.9756L45.3994 30ZM68.3613 16.5C69.813 16.5001 70.9468 16.9499 71.7627 17.8496C72.5907 18.7496 73.0049 20.0164 73.0049 21.6484V24.4561C73.0049 26.1361 72.5907 27.414 71.7627 28.29C70.9468 29.1659 69.8131 29.6044 68.3613 29.6045C66.9094 29.6045 65.7694 29.1659 64.9414 28.29C64.1254 27.414 63.7168 26.1361 63.7168 24.4561V21.6484C63.7168 20.0164 64.1254 18.7496 64.9414 17.8496C65.7694 16.9499 66.9096 16.5 68.3613 16.5ZM115.327 16.5C116.779 16.5 117.914 16.9496 118.729 17.8496C119.557 18.7496 119.971 20.0164 119.971 21.6484V24.4561C119.971 26.1359 119.557 27.414 118.729 28.29C117.914 29.166 116.779 29.6045 115.327 29.6045C113.875 29.6045 112.735 29.166 111.907 28.29C111.091 27.414 110.683 26.1361 110.683 24.4561V21.6484C110.683 20.0164 111.091 18.7496 111.907 17.8496C112.735 16.9498 113.875 16.5 115.327 16.5ZM150.552 16.5C152.003 16.5 153.137 16.95 153.953 17.8496C154.781 18.7496 155.195 20.0164 155.195 21.6484V24.4561C155.195 26.1361 154.781 27.414 153.953 28.29C153.137 29.1659 152.004 29.6045 150.552 29.6045C149.1 29.6045 147.96 29.166 147.132 28.29C146.316 27.414 145.907 26.1361 145.907 24.4561V21.6484C145.907 20.0164 146.316 18.7496 147.132 17.8496C147.96 16.9499 149.1 16.5 150.552 16.5ZM57.3398 16.752C57.9876 16.752 58.5514 16.8603 59.0312 17.0762C59.5113 17.2802 59.9077 17.5563 60.2197 17.9043C60.5436 18.2402 60.7835 18.6303 60.9395 19.0742C61.1074 19.5062 61.1914 19.9503 61.1914 20.4062V20.8379C61.1914 21.3058 61.1074 21.7678 60.9395 22.2236C60.7835 22.6675 60.5436 23.0698 60.2197 23.4297C59.9077 23.7777 59.5113 24.0604 59.0312 24.2764C58.5514 24.4922 57.9876 24.5996 57.3398 24.5996H54.7832V29.3525H52.4072V16.752H57.3398ZM80.7324 16.752C81.3804 16.752 81.9504 16.8425 82.4424 17.0225C82.9343 17.2024 83.342 17.4544 83.666 17.7783C84.002 18.0903 84.2549 18.456 84.4229 18.876C84.6028 19.2958 84.6923 19.7458 84.6924 20.2256V20.6582C84.6924 21.1742 84.5543 21.6603 84.2783 22.1162C84.0023 22.5601 83.5759 22.9016 83 23.1416V23.4658C83.42 23.5138 83.7502 23.6762 83.9902 23.9521C84.2422 24.2281 84.3682 24.5761 84.3682 24.9961V29.3525H81.9922V25.5723C81.9922 25.2844 81.9147 25.0501 81.7588 24.8701C81.6148 24.6901 81.3685 24.5996 81.0205 24.5996H78.2842V29.3525H75.9082V16.752H80.7324ZM96.3799 19.0205H93.0322V29.3525H90.6562V19.0205H87.3076V16.752H96.3799V19.0205ZM107.726 19.0205H102.037V21.9004H107.617V24.168H102.037V29.3525H99.6611V16.752H107.726V19.0205ZM125.412 27.084H131.137V29.3525H123.036V16.752H125.412V27.084ZM143.022 19.0205H139.998V27.084H143.022V29.3525H134.598V27.084H137.622V19.0205H134.598V16.752H143.022V19.0205ZM68.3613 18.6602C67.9534 18.6602 67.6054 18.7386 67.3174 18.8945C67.0294 19.0385 66.7952 19.2363 66.6152 19.4883C66.4353 19.7402 66.3028 20.0398 66.2188 20.3877C66.1348 20.7356 66.0928 21.108 66.0928 21.5039V24.5996C66.0928 25.0196 66.1292 25.404 66.2012 25.752C66.2732 26.1 66.3991 26.4003 66.5791 26.6523C66.7591 26.9042 66.9933 27.1021 67.2812 27.2461C67.5692 27.378 67.9295 27.4443 68.3613 27.4443C68.7932 27.4443 69.1535 27.3781 69.4414 27.2461C69.7291 27.1022 69.9627 26.9041 70.1426 26.6523C70.3226 26.4003 70.4485 26.1 70.5205 25.752C70.5925 25.404 70.6289 25.0196 70.6289 24.5996V21.5039C70.6289 21.108 70.5869 20.7356 70.5029 20.3877C70.419 20.04 70.2872 19.7401 70.1074 19.4883C69.9275 19.2364 69.6931 19.0385 69.4053 18.8945C69.1174 18.7386 68.7692 18.6602 68.3613 18.6602ZM115.327 18.6602C114.919 18.6602 114.571 18.7385 114.283 18.8945C113.995 19.0385 113.761 19.2363 113.581 19.4883C113.401 19.7402 113.269 20.0399 113.185 20.3877C113.101 20.7356 113.059 21.108 113.059 21.5039V24.5996C113.059 25.0196 113.095 25.404 113.167 25.752C113.239 26.1 113.365 26.4003 113.545 26.6523C113.725 26.9043 113.959 27.1021 114.247 27.2461C114.535 27.3781 114.895 27.4443 115.327 27.4443C115.759 27.4443 116.119 27.3781 116.407 27.2461C116.695 27.1021 116.929 26.9043 117.109 26.6523C117.289 26.4003 117.415 26.1 117.487 25.752C117.559 25.404 117.595 25.0195 117.595 24.5996V21.5039C117.595 21.108 117.553 20.7356 117.469 20.3877C117.385 20.04 117.253 19.7401 117.073 19.4883C116.893 19.2363 116.659 19.0385 116.371 18.8945C116.083 18.7385 115.735 18.6602 115.327 18.6602ZM150.552 18.6602C150.144 18.6602 149.796 18.7385 149.508 18.8945C149.22 19.0385 148.986 19.2363 148.806 19.4883C148.626 19.7402 148.493 20.0399 148.409 20.3877C148.325 20.7356 148.283 21.108 148.283 21.5039V24.5996C148.283 25.0196 148.32 25.404 148.392 25.752C148.464 26.1 148.59 26.4003 148.77 26.6523C148.95 26.9043 149.184 27.1021 149.472 27.2461C149.76 27.3781 150.12 27.4443 150.552 27.4443C150.984 27.4443 151.344 27.3781 151.632 27.2461C151.92 27.1021 152.154 26.9043 152.334 26.6523C152.514 26.4003 152.64 26.0999 152.712 25.752C152.784 25.404 152.819 25.0195 152.819 24.5996V21.5039C152.819 21.108 152.777 20.7356 152.693 20.3877C152.609 20.04 152.478 19.7401 152.298 19.4883C152.118 19.2364 151.884 19.0385 151.596 18.8945C151.308 18.7386 150.96 18.6602 150.552 18.6602ZM54.7832 22.332H57.1055C57.6334 22.332 58.0477 22.1884 58.3477 21.9004C58.6596 21.6124 58.8154 21.2401 58.8154 20.7842V20.5684C58.8154 20.1124 58.6596 19.7401 58.3477 19.4521C58.0477 19.1642 57.6335 19.0205 57.1055 19.0205H54.7832V22.332ZM78.2842 22.332H80.5527C81.1284 22.332 81.5663 22.2003 81.8662 21.9365C82.1662 21.6605 82.3164 21.2761 82.3164 20.7842V20.5684C82.3164 20.1484 82.1662 19.7883 81.8662 19.4883C81.5663 19.1763 81.1286 19.0206 80.5527 19.0205H78.2842V22.332ZM138.738 0C139.482 2.0652e-05 140.142 0.108288 140.718 0.324219C141.294 0.52822 141.774 0.809921 142.158 1.16992C142.554 1.52992 142.848 1.94412 143.04 2.41211C143.244 2.87999 143.346 3.37184 143.346 3.8877V4.53613H140.97V4.10449C140.97 3.60049 140.772 3.16204 140.376 2.79004C139.992 2.4181 139.446 2.23246 138.738 2.23242C138.138 2.23242 137.664 2.35838 137.316 2.61035C136.969 2.85028 136.794 3.1798 136.794 3.59961C136.794 3.81561 136.836 4.01434 136.92 4.19434C137.004 4.36226 137.149 4.51817 137.353 4.66211C137.568 4.79399 137.844 4.91454 138.18 5.02246C138.528 5.13046 138.966 5.23212 139.494 5.32812C140.814 5.56813 141.823 5.97019 142.519 6.53418C143.214 7.09818 143.562 7.93232 143.562 9.03613V9.25195C143.562 9.83995 143.454 10.3745 143.238 10.8545C143.034 11.3223 142.734 11.7237 142.338 12.0596C141.942 12.3955 141.462 12.654 140.898 12.834C140.334 13.014 139.698 13.1045 138.99 13.1045C138.162 13.1045 137.43 12.9897 136.794 12.7617C136.17 12.5218 135.648 12.1979 135.229 11.79C134.809 11.3701 134.49 10.884 134.274 10.332C134.058 9.76805 133.95 9.15607 133.95 8.49609V7.95605H136.326V8.3877C136.326 9.14359 136.542 9.75008 136.974 10.2061C137.418 10.6501 138.102 10.8721 139.026 10.8721C139.746 10.872 140.28 10.7161 140.628 10.4043C140.976 10.0923 141.15 9.72006 141.15 9.28809C141.15 9.08409 141.114 8.89191 141.042 8.71191C140.97 8.51997 140.844 8.35198 140.664 8.20801C140.484 8.05201 140.238 7.91394 139.926 7.79395C139.614 7.67401 139.218 7.57225 138.738 7.48828C138.102 7.38029 137.52 7.2422 136.992 7.07422C136.464 6.89426 136.002 6.65998 135.606 6.37207C135.222 6.08407 134.922 5.72399 134.706 5.29199C134.49 4.85999 134.382 4.332 134.382 3.70801V3.59961C134.382 3.08376 134.485 2.60962 134.688 2.17773C134.904 1.73391 135.198 1.35027 135.57 1.02637C135.954 0.702366 136.41 0.449532 136.938 0.269531C137.478 0.089644 138.078 0 138.738 0ZM54.9639 10.584H60.6875V12.8516H52.5879V0.251953H54.9639V10.584ZM72.5732 2.51953H69.5488V10.584H72.5732V12.8516H64.1494V10.584H67.1729V2.51953H64.1494V0.251953H72.5732V2.51953ZM81.8125 11.6641H82.1367V0.251953H84.5127V12.8516H79.8682L78.3926 1.44043H78.0684V12.8516H75.6924V0.251953H80.3369L81.8125 11.6641ZM90.0977 5.41797H90.6201L93.9502 0.251953H96.6318V0.360352L92.7441 6.38965V6.71387L96.8477 12.7441V12.8516H94.0576L90.6201 7.68555H90.0977V12.8516H87.7217V0.251953H90.0977V5.41797ZM107.51 2.51953H101.93V5.40039H107.294V7.66797H101.93V10.584H107.726V12.8516H99.5537V0.251953H107.51V2.51953ZM117.037 11.6641H117.361V0.251953H119.737V12.8516H115.093L113.617 1.44043H113.293V12.8516H110.917V0.251953H115.562L117.037 11.6641ZM127.068 0C127.296 0 127.513 0.0475542 127.717 0.143555C127.933 0.227532 128.118 0.347977 128.274 0.503906C128.43 0.647907 128.551 0.827945 128.635 1.04395C128.731 1.24794 128.778 1.46439 128.778 1.69238V3.8877C128.778 4.3437 128.623 4.72804 128.311 5.04004C128.011 5.35198 127.633 5.50777 127.177 5.50781H126.024V4.10449H126.889C127.212 4.10445 127.375 3.92412 127.375 3.56445V3.34766C127.279 3.38366 127.176 3.40234 127.068 3.40234C126.828 3.40232 126.606 3.36034 126.402 3.27637C126.198 3.18039 126.018 3.05439 125.862 2.89844C125.706 2.7425 125.58 2.56229 125.484 2.3584C125.4 2.1545 125.358 1.93224 125.358 1.69238C125.358 1.46439 125.4 1.24794 125.484 1.04395C125.58 0.827984 125.706 0.647894 125.862 0.503906C126.018 0.34791 126.198 0.227554 126.402 0.143555C126.606 0.0475811 126.828 2.54509e-05 127.068 0Z" fill="#333333"/>
</g>
<defs>
<clipPath id="clip0_333_493">
<rect width="156" height="30" fill="white"/>
</clipPath>
</defs>
</svg>
